#Comment line ignore any data following # character 
#Hierarchical Translation and Rotation (.htr) file 
[Header]	
#Header keywords are followed by a single value 
FileType HTR		#Single word string
DataType HTRS		#Translation followed by rotation and scale data
FileVersion 1		#integer
NumSegments 84		#integer
NumFrames 2		#integer
DataFrameRate 30		#integer, data frame rate in this file
EulerRotationOrder ZYX
CalibrationUnits mm
RotationUnits Degrees
GlobalAxisofGravity Y
BoneLengthAxis Y
ScaleFactor 1.00
[SegmentNames&Hierarchy]
#CHILD	PARENT
MASTER GLOBAL
root MASTER
chest root
L_mid_tent01 root
R_mid_tent01 root
spine01 root
Bip01_Neck chest
L_humerus chest
R_humerus chest
weapon_bone chest
Bip01_Head Bip01_Neck
eye_left_bone Bip01_Head
eye_right_bone Bip01_Head
L_forearm L_humerus
L_front_hand L_forearm
L_weapon_bone L_forearm
L_front_hand01_01 L_front_hand
L_front_hand02_01 L_front_hand
L_front_hand03_01 L_front_hand
L_front_hand01_02 L_front_hand01_01
L_front_hand02_02 L_front_hand02_01
L_front_hand03_02 L_front_hand03_01
R_forearm R_humerus
R_front_hand R_forearm
R_weapon_bone R_forearm
R_front_hand01_01 R_front_hand
R_front_hand02_01 R_front_hand
R_front_hand03_01 R_front_hand
R_front_hand01_02 R_front_hand01_01
R_front_hand02_02 R_front_hand02_01
R_front_hand03_02 R_front_hand03_01
null_rope01_connect L_mid_tent01
Rope1_Seg01 null_rope01_connect
Rope1_Seg02 Rope1_Seg01
Rope1_Seg03 Rope1_Seg02
Rope1_Seg04 Rope1_Seg03
Rope1_Seg05 Rope1_Seg04
Rope1_Seg06 Rope1_Seg05
Rope1_Seg07 Rope1_Seg06
Rope1_Seg09 Rope1_Seg07
L_mid_hand01 Rope1_Seg09
L_mid_hand02 Rope1_Seg09
L_mid_hand03 Rope1_Seg09
null_rope02_connect R_mid_tent01
Rope2_Seg01 null_rope02_connect
Rope2_Seg02 Rope2_Seg01
Rope2_Seg03 Rope2_Seg02
Rope2_Seg04 Rope2_Seg03
Rope2_Seg05 Rope2_Seg04
Rope2_Seg06 Rope2_Seg05
Rope2_Seg07 Rope2_Seg06
Rope2_Seg09 Rope2_Seg07
R_mid_hand01 Rope2_Seg09
R_mid_hand02 Rope2_Seg09
R_mid_hand03 Rope2_Seg09
spine02 spine01
spine03 spine02
pelvis spine03
null_rope03_connect pelvis
null_rope04_connect pelvis
Rope3_Seg01 null_rope03_connect
Rope3_Seg02 Rope3_Seg01
Rope3_Seg03 Rope3_Seg02
Rope3_Seg04 Rope3_Seg03
Rope3_Seg05 Rope3_Seg04
Rope3_Seg06 Rope3_Seg05
Rope3_Seg07 Rope3_Seg06
Rope3_Seg08 Rope3_Seg07
Rope3_Seg09 Rope3_Seg08
R_rear_hand01 Rope3_Seg09
R_rear_hand02 Rope3_Seg09
R_rear_hand03 Rope3_Seg09
Rope4_Seg01 null_rope04_connect
Rope4_Seg02 Rope4_Seg01
Rope4_Seg03 Rope4_Seg02
Rope4_Seg04 Rope4_Seg03
Rope4_Seg05 Rope4_Seg04
Rope4_Seg06 Rope4_Seg05
Rope4_Seg07 Rope4_Seg06
Rope4_Seg08 Rope4_Seg07
Rope4_Seg09 Rope4_Seg08
L_rear_hand01 Rope4_Seg09
L_rear_hand02 Rope4_Seg09
L_rear_hand03 Rope4_Seg09
[BasePosition]
#SegmentName Tx, Ty, Tz, Rx, Ry, Rz, BoneLength
MASTER 0.000000 0.000000 0.000000 -90.000000 0.000000 0.000000 10.000000 
root 0.000000 0.000000 0.000000 0.000000 0.000000 0.000000 10.000000 
chest 0.000000 0.000000 0.000000 0.000000 0.000000 0.000000 10.000000 
L_mid_tent01 0.000000 0.000000 0.000000 0.000000 0.000000 0.000000 10.000000 
R_mid_tent01 0.000000 0.000000 0.000000 0.000000 0.000000 0.000000 10.000000 
spine01 0.000000 0.000000 0.000000 0.000000 0.000000 0.000000 10.000000 
Bip01_Neck 0.000000 0.000000 0.000000 0.000000 0.000000 0.000000 10.000000 
L_humerus 0.000000 0.000000 0.000000 0.000000 0.000000 0.000000 10.000000 
R_humerus 0.000000 0.000000 0.000000 0.000000 0.000000 0.000000 10.000000 
weapon_bone 0.000000 0.000000 0.000000 0.000000 0.000000 0.000000 10.000000 
Bip01_Head 0.000000 0.000000 0.000000 0.000000 0.000000 0.000000 10.000000 
eye_left_bone 0.000000 0.000000 0.000000 0.000000 0.000000 0.000000 10.000000 
eye_right_bone 0.000000 0.000000 0.000000 0.000000 0.000000 0.000000 10.000000 
L_forearm 0.000000 0.000000 0.000000 0.000000 0.000000 0.000000 10.000000 
L_front_hand 0.000000 0.000000 0.000000 0.000000 0.000000 0.000000 10.000000 
L_weapon_bone 0.000000 0.000000 0.000000 0.000000 0.000000 0.000000 10.000000 
L_front_hand01_01 0.000000 0.000000 0.000000 0.000000 0.000000 0.000000 10.000000 
L_front_hand02_01 0.000000 0.000000 0.000000 0.000000 0.000000 0.000000 10.000000 
L_front_hand03_01 0.000000 0.000000 0.000000 0.000000 0.000000 0.000000 10.000000 
L_front_hand01_02 0.000000 0.000000 0.000000 0.000000 0.000000 0.000000 10.000000 
L_front_hand02_02 0.000000 0.000000 0.000000 0.000000 0.000000 0.000000 10.000000 
L_front_hand03_02 0.000000 0.000000 0.000000 0.000000 0.000000 0.000000 10.000000 
R_forearm 0.000000 0.000000 0.000000 0.000000 0.000000 0.000000 10.000000 
R_front_hand 0.000000 0.000000 0.000000 0.000000 0.000000 0.000000 10.000000 
R_weapon_bone 0.000000 0.000000 0.000000 0.000000 0.000000 0.000000 10.000000 
R_front_hand01_01 0.000000 0.000000 0.000000 0.000000 0.000000 0.000000 10.000000 
R_front_hand02_01 0.000000 0.000000 0.000000 0.000000 0.000000 0.000000 10.000000 
R_front_hand03_01 0.000000 0.000000 0.000000 0.000000 0.000000 0.000000 10.000000 
R_front_hand01_02 0.000000 0.000000 0.000000 0.000000 0.000000 0.000000 10.000000 
R_front_hand02_02 0.000000 0.000000 0.000000 0.000000 0.000000 0.000000 10.000000 
R_front_hand03_02 0.000000 0.000000 0.000000 0.000000 0.000000 0.000000 10.000000 
null_rope01_connect 0.000000 0.000000 0.000000 0.000000 0.000000 0.000000 10.000000 
Rope1_Seg01 0.000000 0.000000 0.000000 0.000000 0.000000 0.000000 10.000000 
Rope1_Seg02 0.000000 0.000000 0.000000 0.000000 0.000000 0.000000 10.000000 
Rope1_Seg03 0.000000 0.000000 0.000000 0.000000 0.000000 0.000000 10.000000 
Rope1_Seg04 0.000000 0.000000 0.000000 0.000000 0.000000 0.000000 10.000000 
Rope1_Seg05 0.000000 0.000000 0.000000 0.000000 0.000000 0.000000 10.000000 
Rope1_Seg06 0.000000 0.000000 0.000000 0.000000 0.000000 0.000000 10.000000 
Rope1_Seg07 0.000000 0.000000 0.000000 0.000000 0.000000 0.000000 10.000000 
Rope1_Seg09 0.000000 0.000000 0.000000 0.000000 0.000000 0.000000 10.000000 
L_mid_hand01 0.000000 0.000000 0.000000 0.000000 0.000000 0.000000 10.000000 
L_mid_hand02 0.000000 0.000000 0.000000 0.000000 0.000000 0.000000 10.000000 
L_mid_hand03 0.000000 0.000000 0.000000 0.000000 0.000000 0.000000 10.000000 
null_rope02_connect 0.000000 0.000000 0.000000 0.000000 0.000000 0.000000 10.000000 
Rope2_Seg01 0.000000 0.000000 0.000000 0.000000 0.000000 0.000000 10.000000 
Rope2_Seg02 0.000000 0.000000 0.000000 0.000000 0.000000 0.000000 10.000000 
Rope2_Seg03 0.000000 0.000000 0.000000 0.000000 0.000000 0.000000 10.000000 
Rope2_Seg04 0.000000 0.000000 0.000000 0.000000 0.000000 0.000000 10.000000 
Rope2_Seg05 0.000000 0.000000 0.000000 0.000000 0.000000 0.000000 10.000000 
Rope2_Seg06 0.000000 0.000000 0.000000 0.000000 0.000000 0.000000 10.000000 
Rope2_Seg07 0.000000 0.000000 0.000000 0.000000 0.000000 0.000000 10.000000 
Rope2_Seg09 0.000000 0.000000 0.000000 0.000000 0.000000 0.000000 10.000000 
R_mid_hand01 0.000000 0.000000 0.000000 0.000000 0.000000 0.000000 10.000000 
R_mid_hand02 0.000000 0.000000 0.000000 0.000000 0.000000 0.000000 10.000000 
R_mid_hand03 0.000000 0.000000 0.000000 0.000000 0.000000 0.000000 10.000000 
spine02 0.000000 0.000000 0.000000 0.000000 0.000000 0.000000 10.000000 
spine03 0.000000 0.000000 0.000000 0.000000 0.000000 0.000000 10.000000 
pelvis 0.000000 0.000000 0.000000 0.000000 0.000000 0.000000 10.000000 
null_rope03_connect 0.000000 0.000000 0.000000 0.000000 0.000000 0.000000 10.000000 
null_rope04_connect 0.000000 0.000000 0.000000 0.000000 0.000000 0.000000 10.000000 
Rope3_Seg01 0.000000 0.000000 0.000000 0.000000 0.000000 0.000000 10.000000 
Rope3_Seg02 0.000000 0.000000 0.000000 0.000000 0.000000 0.000000 10.000000 
Rope3_Seg03 0.000000 0.000000 0.000000 0.000000 0.000000 0.000000 10.000000 
Rope3_Seg04 0.000000 0.000000 0.000000 0.000000 0.000000 0.000000 10.000000 
Rope3_Seg05 0.000000 0.000000 0.000000 0.000000 0.000000 0.000000 10.000000 
Rope3_Seg06 0.000000 0.000000 0.000000 0.000000 0.000000 0.000000 10.000000 
Rope3_Seg07 0.000000 0.000000 0.000000 0.000000 0.000000 0.000000 10.000000 
Rope3_Seg08 0.000000 0.000000 0.000000 0.000000 0.000000 0.000000 10.000000 
Rope3_Seg09 0.000000 0.000000 0.000000 0.000000 0.000000 0.000000 10.000000 
R_rear_hand01 0.000000 0.000000 0.000000 0.000000 0.000000 0.000000 10.000000 
R_rear_hand02 0.000000 0.000000 0.000000 0.000000 0.000000 0.000000 10.000000 
R_rear_hand03 0.000000 0.000000 0.000000 0.000000 0.000000 0.000000 10.000000 
Rope4_Seg01 0.000000 0.000000 0.000000 0.000000 0.000000 0.000000 10.000000 
Rope4_Seg02 0.000000 0.000000 0.000000 0.000000 0.000000 0.000000 10.000000 
Rope4_Seg03 0.000000 0.000000 0.000000 0.000000 0.000000 0.000000 10.000000 
Rope4_Seg04 0.000000 0.000000 0.000000 0.000000 0.000000 0.000000 10.000000 
Rope4_Seg05 0.000000 0.000000 0.000000 0.000000 0.000000 0.000000 10.000000 
Rope4_Seg06 0.000000 0.000000 0.000000 0.000000 0.000000 0.000000 10.000000 
Rope4_Seg07 0.000000 0.000000 0.000000 0.000000 0.000000 0.000000 10.000000 
Rope4_Seg08 0.000000 0.000000 0.000000 0.000000 0.000000 0.000000 10.000000 
Rope4_Seg09 0.000000 0.000000 0.000000 0.000000 0.000000 0.000000 10.000000 
L_rear_hand01 0.000000 0.000000 0.000000 0.000000 0.000000 0.000000 10.000000 
L_rear_hand02 0.000000 0.000000 0.000000 0.000000 0.000000 0.000000 10.000000 
L_rear_hand03 0.000000 0.000000 0.000000 0.000000 0.000000 0.000000 10.000000 
#Beginning of Data. Separated by tabs
#Fr	Tx	Ty	Tz	Rx	Ry	Rz	SF
[MASTER]
11 1667.055176 -0.000252 0.000000 0.002347 0.000000 89.997688 1667.055054
12 1844.560913 -0.000279 0.000000 0.002347 0.000000 89.997704 1844.560913
[root]
11 -62.822105 16.502380 911.598572 55.608105 -28.038059 -173.787918 913.909668
12 -62.822105 16.502380 927.687744 38.608097 -27.851370 -172.075012 929.958862
[chest]
11 -84.512650 -34.090519 0.000000 137.729965 -10.324600 -179.295364 91.129311
12 -84.512650 -34.090519 0.000000 119.843513 -10.481485 -174.774017 91.129311
[L_mid_tent01]
11 27.521769 22.050259 -251.345901 -30.674150 0.036816 15.035162 253.807846
12 27.514013 22.054697 -251.296097 -30.663670 0.093706 15.096786 253.758072
[R_mid_tent01]
11 23.228794 24.509907 226.238495 -157.402023 -47.131454 31.215775 228.744751
12 23.228794 24.509907 226.238495 -155.772797 -45.259197 29.647505 228.744751
[spine01]
11 -0.361383 -0.195265 0.000000 21.823242 1.707903 -4.455853 0.410763
12 -0.361383 -0.195265 0.000000 25.075401 1.843322 -4.357883 0.410763
[Bip01_Neck]
11 165.484543 71.581718 0.000119 175.896118 1.177290 24.871180 180.302734
12 165.484543 71.581718 0.000119 175.896118 1.177290 24.871183 180.302734
[L_humerus]
11 -13.983130 -135.272980 -120.471481 170.940796 81.564224 -99.189163 181.680161
12 -13.983130 -135.272980 -120.471481 170.940796 81.564224 -99.189163 181.680161
[R_humerus]
11 -13.983309 -135.273102 125.287651 -159.666046 -68.957870 -101.166077 184.909012
12 -13.983309 -135.273102 125.287651 -159.666046 -68.957870 -101.166077 184.909012
[weapon_bone]
11 235.964890 -300.705902 0.000000 0.000000 -89.951546 -128.212341 382.234833
12 235.964890 -300.705902 0.000000 0.000000 -89.951546 -128.212341 382.234833
[Bip01_Head]
11 261.355774 108.959435 -2.864143 2.248029 5.843375 -62.458332 283.173462
12 261.355774 108.959450 -2.864139 2.248029 5.843377 -62.458344 283.173492
[eye_left_bone]
11 -24.626970 125.451866 -64.772606 0.000000 -90.000000 -99.840431 143.318359
12 -24.626970 125.451866 -64.772606 0.000000 -90.000000 -99.840431 143.318359
[eye_right_bone]
11 -24.626970 125.451866 64.327362 0.000000 -89.960434 80.159386 143.117676
12 -24.626970 125.451866 64.327362 0.000000 -89.960434 80.159386 143.117676
[L_forearm]
11 322.776093 0.000000 -0.000119 0.000471 0.002300 -66.859383 322.776093
12 322.776093 0.000000 -0.000119 0.000471 0.002300 -66.859398 322.776093
[L_front_hand]
11 241.149185 -0.042021 -3.300071 -178.667953 -1.835447 -27.422344 241.171753
12 241.149185 -0.042021 -3.300071 -178.667953 -1.835447 -27.422350 241.171753
[L_weapon_bone]
11 156.183838 0.000000 0.000000 0.001684 0.001635 1.712932 156.183838
12 156.183838 0.000000 0.000000 0.001660 0.001660 0.001660 156.183838
[L_front_hand01_01]
11 86.095154 20.947098 -0.655860 0.369602 -0.471604 -0.474656 88.609184
12 86.095154 20.947098 -0.655860 0.355583 -0.483393 1.696618 88.609184
[L_front_hand02_01]
11 86.935165 -11.437475 24.513514 116.900932 -0.067227 -0.380435 91.046425
12 86.935165 -11.437475 24.513514 116.920830 -2.000208 -1.364704 91.046425
[L_front_hand03_01]
11 86.637497 -14.123976 -20.424902 -118.322960 -1.010497 -2.122114 90.126129
12 86.637497 -14.123976 -20.424902 -118.323914 0.897004 -3.155428 90.126129
[L_front_hand01_02]
11 71.020905 -0.000179 0.000030 0.001340 0.001927 -20.398041 71.020905
12 71.020905 -0.000179 0.000030 0.001284 0.001965 -23.693426 71.020905
[L_front_hand02_02]
11 71.020927 -0.000119 0.000060 0.001340 0.001927 -20.398041 71.020927
12 71.020927 -0.000119 0.000060 0.001284 0.001965 -23.693426 71.020927
[L_front_hand03_02]
11 71.020905 -0.000060 0.000060 0.001340 0.001927 -20.398041 71.020905
12 71.020905 -0.000060 0.000060 0.001284 0.001965 -23.693426 71.020905
[R_forearm]
11 322.776428 -0.000060 0.000030 0.199694 -0.075621 -69.903069 322.776428
12 322.776428 -0.000060 0.000030 0.199694 -0.075621 -69.903069 322.776428
[R_front_hand]
11 238.847015 -0.006795 2.210259 -1.531694 0.790216 -51.443062 238.857239
12 238.847015 -0.006795 2.210259 -1.531694 0.790216 -51.443054 238.857239
[R_weapon_bone]
11 155.664093 0.002503 -0.000030 0.003460 0.001257 -93.540901 155.664078
12 155.664093 0.002503 -0.000030 0.003487 0.001180 -90.988930 155.664078
[R_front_hand01_01]
11 87.624611 14.231146 22.918642 -116.905045 -0.199669 0.558365 91.683487
12 87.624611 14.231146 22.918642 -116.926704 -2.134259 1.536028 91.683487
[R_front_hand02_01]
11 89.356956 14.367283 -19.491137 118.337402 -0.608905 2.582982 92.579636
12 89.356956 14.367283 -19.491137 118.343285 1.300314 3.610098 92.579636
[R_front_hand03_01]
11 87.286232 -22.307278 -0.143439 -0.369466 -0.260185 0.086579 90.091743
12 87.286232 -22.307278 -0.143439 -0.359435 -0.271993 -2.084699 90.091743
[R_front_hand01_02]
11 71.020905 0.000060 0.000119 0.001927 0.001340 20.396389 71.020905
12 71.020905 0.000060 0.000119 0.001965 0.001284 23.691765 71.020905
[R_front_hand02_02]
11 71.020844 -0.000030 -0.000119 0.001927 0.001340 20.396389 71.020836
12 71.020844 -0.000030 -0.000119 0.001965 0.001284 23.691765 71.020836
[R_front_hand03_02]
11 71.020905 0.000000 0.000030 0.001927 0.001340 20.396389 71.020905
12 71.020905 0.000000 0.000030 0.001965 0.001284 23.691765 71.020905
[null_rope01_connect]
11 328.732483 0.000000 -0.000238 33.812023 29.130535 74.898048 328.732483
12 328.732483 0.000000 -0.000238 34.227009 13.259566 71.431236 328.732483
[Rope1_Seg01]
11 0.000000 0.000000 0.000000 108.463669 -12.885962 -7.564218 0.000000
12 0.000000 0.000000 0.000000 114.659698 8.473276 1.104022 0.000000
[Rope1_Seg02]
11 139.999863 -0.000179 0.000000 0.347321 11.731033 -20.561920 139.999863
12 139.999863 -0.000179 0.000000 1.991997 7.199356 -12.861277 139.999863
[Rope1_Seg03]
11 139.999924 0.000060 -0.000060 22.237932 16.911312 -35.679031 139.999924
12 139.999924 0.000060 -0.000060 15.643893 11.654466 -24.163004 139.999924
[Rope1_Seg04]
11 139.999924 -0.000060 -0.000119 96.808281 0.321725 -25.450157 139.999924
12 139.999924 -0.000060 -0.000119 110.183075 4.350590 -30.916199 139.999924
[Rope1_Seg05]
11 139.999832 0.000119 -0.000060 20.059469 -13.632419 0.406749 139.999832
12 139.999832 0.000119 -0.000060 15.226927 -15.048770 3.365191 139.999832
[Rope1_Seg06]
11 139.999954 0.000119 -0.000060 5.134041 -7.642709 3.142139 139.999954
12 139.999954 0.000119 -0.000060 3.944128 -8.330613 4.200843 139.999954
[Rope1_Seg07]
11 139.999985 0.000060 0.000000 1.967744 -4.319126 2.343197 139.999985
12 139.999985 0.000060 0.000000 1.955647 -6.729640 4.119160 139.999985
[Rope1_Seg09]
11 121.602913 0.000119 -0.000089 -89.793175 -1.359789 0.847147 121.602913
12 121.602913 0.000119 -0.000089 -89.793175 -1.359789 0.847147 121.602913
[L_mid_hand01]
11 103.859421 1.038730 8.195221 104.353477 -0.000248 -0.529904 104.187431
12 103.859421 1.038730 8.195221 104.355774 -0.956058 -0.777194 104.187431
[L_mid_hand02]
11 105.572853 -4.139662 -10.864139 -135.628891 4.147943 -3.635983 106.211075
12 105.572853 -4.139662 -10.864139 -135.680969 4.839560 -4.340801 106.211075
[L_mid_hand03]
11 104.641464 17.579376 -3.913581 -18.765770 -0.214116 3.275741 106.179977
12 104.641464 17.579376 -3.913581 -18.765802 0.105102 4.206013 106.179977
[null_rope02_connect]
11 328.732849 0.000179 -0.000119 -21.145977 -67.293732 -173.496811 328.732849
12 328.732849 0.000179 -0.000119 -66.292351 -75.863701 -126.320511 328.732849
[Rope2_Seg01]
11 -0.000061 0.000134 0.000153 -30.974550 -73.482498 -163.802185 0.000212
12 -0.000060 0.000134 0.000153 -144.861649 -83.816734 -53.015999 0.000211
[Rope2_Seg02]
11 139.999741 -0.000060 -0.000119 -1.802493 -5.796772 -26.162220 139.999756
12 139.999741 -0.000060 -0.000119 -9.718076 -8.430084 -30.088800 139.999756
[Rope2_Seg03]
11 140.000107 0.000030 0.000000 6.114133 -5.305145 -51.671432 140.000107
12 140.000107 0.000030 0.000000 -4.596953 -0.760057 -49.722164 140.000107
[Rope2_Seg04]
11 139.999802 0.000000 -0.000060 6.786180 -5.236146 -23.736990 139.999802
12 139.999802 0.000000 -0.000060 3.301822 -0.554313 -20.794950 139.999802
[Rope2_Seg05]
11 139.999985 -0.000060 0.000119 4.254172 -10.319809 -11.671065 139.999985
12 139.999985 -0.000060 0.000119 4.266887 -7.246391 -13.908354 139.999985
[Rope2_Seg06]
11 139.999893 -0.000030 -0.000119 2.229813 -10.392008 -8.981482 139.999893
12 139.999893 -0.000030 -0.000119 2.966892 -6.866461 -10.897459 139.999893
[Rope2_Seg07]
11 139.999893 0.000060 -0.000060 0.474514 -5.127289 -5.244362 139.999893
12 139.999893 0.000060 -0.000060 1.279700 -3.535192 -6.241137 139.999893
[Rope2_Seg09]
11 121.338966 0.000089 -0.000060 33.793236 -1.359788 -0.847141 121.338966
12 121.338966 0.000089 -0.000060 33.793236 -1.359788 -0.847141 121.338966
[R_mid_hand01]
11 104.680779 11.144459 -10.335981 -47.336269 3.795512 6.220475 105.778534
12 104.680779 11.144459 -10.335981 -47.275349 4.744051 7.096739 105.778534
[R_mid_hand02]
11 104.070427 2.443552 8.231699 75.611839 -3.350028 1.391578 104.424065
12 104.070427 2.443552 8.231699 75.589462 -4.600448 1.713181 104.424065
[R_mid_hand03]
11 106.028137 -11.221827 -5.996406 -164.430145 2.798768 -7.230777 106.788818
12 106.028137 -11.221827 -5.996406 -164.493469 3.146489 -8.476594 106.788818
[spine02]
11 129.756927 0.001550 0.000119 -0.245322 -4.052059 -4.355546 129.756927
12 129.756927 0.001550 0.000119 -0.245322 -4.052060 -4.355547 129.756927
[spine03]
11 78.613739 0.087189 -4.898995 0.369658 4.260732 -4.885719 78.766281
12 78.613739 0.087195 -4.899015 0.369659 4.260734 -4.885720 78.766281
[pelvis]
11 169.435242 0.051022 0.000000 -0.010074 -0.195214 -1.821460 169.435257
12 169.435242 0.051022 0.000000 -0.010067 -0.194834 -1.829070 169.435257
[null_rope03_connect]
11 -1.257226 -2.466202 137.391083 -1.683934 79.454269 75.514404 137.418976
12 -1.257226 -2.466202 137.391083 12.039420 66.965012 88.336975 137.418976
[null_rope04_connect]
11 -1.259640 -2.480268 -137.844437 -1.683934 79.454269 75.514404 137.872513
12 -1.259640 -2.480268 -137.844437 12.039420 66.965012 88.336975 137.872513
[Rope3_Seg01]
11 0.000000 0.000000 0.000000 -11.870227 19.986021 -133.950958 0.000000
12 0.000000 0.000000 0.000000 -11.147328 10.207905 -140.714630 0.000000
[Rope3_Seg02]
11 139.999924 -0.000119 0.000060 -10.470369 3.390310 -12.205266 139.999924
12 139.999924 -0.000119 0.000060 -14.538290 1.649453 -12.553658 139.999924
[Rope3_Seg03]
11 139.999924 -0.000119 0.000119 -37.311760 11.392751 -24.877041 139.999924
12 139.999924 -0.000119 0.000119 -58.128208 9.772863 -25.496521 139.999924
[Rope3_Seg04]
11 139.999924 0.000119 0.000000 -41.594437 28.032969 -18.359745 139.999924
12 139.999924 0.000119 0.000000 -39.061974 32.095421 -8.216668 139.999924
[Rope3_Seg05]
11 139.999924 -0.000238 0.000060 -10.404817 27.544708 4.882657 139.999924
12 139.999924 -0.000238 0.000060 -4.622540 25.158152 12.924718 139.999924
[Rope3_Seg06]
11 139.999893 -0.000119 -0.000060 -0.725435 18.673912 8.124536 139.999893
12 139.999893 -0.000119 -0.000060 1.010793 16.602064 11.594165 139.999893
[Rope3_Seg07]
11 139.999771 0.000060 -0.000119 0.736850 8.060698 3.604115 139.999771
12 139.999771 0.000060 -0.000119 1.113777 7.181392 4.914667 139.999771
[Rope3_Seg08]
11 139.999985 -0.000060 0.000000 0.807734 3.952482 1.702269 139.999985
12 139.999985 -0.000060 0.000000 0.930021 3.545055 2.331519 139.999985
[Rope3_Seg09]
11 90.185997 -0.000179 -0.000060 89.793228 -1.359877 -0.847183 90.185997
12 90.185997 -0.000179 -0.000060 89.793228 -1.359877 -0.847183 90.185997
[R_rear_hand01]
11 103.366196 -6.073594 -10.757982 -159.911102 14.619091 -24.012125 104.101845
12 103.366196 -6.073594 -10.757982 -156.894989 8.887354 -9.307902 104.101845
[R_rear_hand02]
11 100.509819 12.039542 -7.992327 -35.882572 15.724491 23.557304 101.543350
12 100.509819 12.039542 -7.992327 -38.307755 6.345307 10.983821 101.543350
[R_rear_hand03]
11 101.539970 5.215704 5.435467 83.734200 -24.775511 6.498349 101.819031
12 101.539970 5.215704 5.435467 84.234985 -9.371894 4.804685 101.819031
[Rope4_Seg01]
11 0.000000 0.000000 0.000000 -96.023384 5.801554 -73.131264 0.000000
12 0.000000 0.000000 0.000000 -96.812271 7.859970 -79.109413 0.000000
[Rope4_Seg02]
11 139.999985 0.000060 0.000119 9.792927 -4.046875 40.391579 139.999985
12 139.999985 0.000060 0.000119 6.010447 3.484919 37.851822 139.999985
[Rope4_Seg03]
11 139.999924 0.000000 -0.000238 -4.370018 -0.813632 52.902260 139.999924
12 139.999924 0.000000 -0.000238 -12.590908 3.764685 54.785572 139.999924
[Rope4_Seg04]
11 139.999985 0.000000 0.000119 -4.775599 3.428890 16.787348 139.999985
12 139.999985 0.000000 0.000119 -9.523800 1.460165 17.845947 139.999985
[Rope4_Seg05]
11 139.999802 -0.000060 -0.000119 -4.354905 8.722861 13.291807 139.999802
12 139.999802 -0.000060 -0.000119 -8.242757 6.465006 13.965996 139.999802
[Rope4_Seg06]
11 139.999924 0.000000 0.000060 -6.202256 5.068285 9.878820 139.999924
12 139.999924 0.000000 0.000060 -10.088502 2.958859 10.538817 139.999924
[Rope4_Seg07]
11 139.999802 0.000000 0.000000 -5.511272 1.561871 5.935858 139.999802
12 139.999802 0.000000 0.000000 -7.777194 -0.139960 6.016983 139.999802
[Rope4_Seg08]
11 139.999924 0.000000 0.000119 -5.454762 0.584322 3.598822 139.999924
12 139.999924 0.000000 0.000119 -6.640049 -0.566536 3.532638 139.999924
[Rope4_Seg09]
11 90.185791 0.000060 0.000060 -135.617828 2.228885 0.850567 90.185791
12 90.185791 0.000060 0.000060 -135.617828 2.228885 0.850567 90.185791
[L_rear_hand01]
11 101.696655 -8.392275 -7.654577 -36.168262 -14.968047 157.523178 102.329041
12 101.696655 -8.392275 -7.654577 -38.517063 -4.590807 171.240036 102.329041
[L_rear_hand02]
11 102.726799 -1.568258 5.773216 83.796188 23.492737 173.657516 102.900848
12 102.726799 -1.568258 5.773216 84.275558 6.558722 175.484329 102.900848
[L_rear_hand03]
11 104.552910 9.721220 -10.420293 -159.600342 -14.172174 -157.235031 105.519653
12 104.552910 9.721220 -10.420293 -156.517609 -7.767868 -173.313843 105.519653
